<svg xmlns="http://www.w3.org/2000/svg" version="1.1" xmlns:xlink="http://www.w3.org/1999/xlink" xmlns:svgjs="http://svgjs.dev/svgjs" width="1000" height="1000" viewBox="0 0 1000 1000"><rect width="1000" height="1000" fill="#ffffff"></rect><g transform="matrix(0.7,0,0,0.7,149.57575757575756,444.57812771230465)"><svg viewBox="0 0 396 63" data-background-color="#ffffff" preserveAspectRatio="xMidYMid meet" height="159" width="1000" xmlns="http://www.w3.org/2000/svg" xmlns:xlink="http://www.w3.org/1999/xlink"><g id="tight-bounds" transform="matrix(1,0,0,1,0.2400000000000091,-0.1291288937573256)"><svg viewBox="0 0 395.52 63.257887944093675" height="63.257887944093675" width="395.52"><g><svg viewBox="0 0 395.52 63.257887944093675" height="63.257887944093675" width="395.52"><g><svg viewBox="0 0 486.64805571164436 77.83254494442318" height="63.257887944093675" width="395.52"><g transform="matrix(1,0,0,1,91.12805571164435,10.756885733997706)"><svg viewBox="0 0 395.52 56.318773476427765" height="56.318773476427765" width="395.52"><g id="textblocktransform"><svg viewBox="0 0 395.52 56.318773476427765" height="56.318773476427765" width="395.52" id="textblock"><g><svg viewBox="0 0 395.52 56.318773476427765" height="56.318773476427765" width="395.52"><g transform="matrix(1,0,0,1,0,0)"><svg width="395.52" viewBox="5.699999809265137 -36.54999923706055 255.5900115966797 37.14999771118164" height="56.318773476427765" data-palette-color="#0080ff"><g class="undefined-text-0" data-fill-palette-color="primary" id="text-0"><path d="M14.7 0L5.7 0 5.7-32.95 14.05-32.95Q19.2-32.95 22.03-31.03 24.85-29.1 24.85-24.95L24.85-24.95Q24.85-22.35 23.4-20.43 21.95-18.5 19-17.75L19-17.75 19-17.55Q22.7-17 24.8-15.03 26.9-13.05 26.9-9.6L26.9-9.6Q26.9-4.8 23.68-2.4 20.45 0 14.7 0L14.7 0ZM8-31L8-18.5 13.15-18.5Q18.2-18.5 20.38-20.1 22.55-21.7 22.55-24.85L22.55-24.85Q22.55-28.15 20.33-29.58 18.1-31 13.4-31L13.4-31 8-31ZM8-16.5L8-1.95 14.1-1.95Q19.15-1.95 21.88-3.78 24.6-5.6 24.6-9.6L24.6-9.6Q24.6-13.15 21.9-14.83 19.2-16.5 14.1-16.5L14.1-16.5 8-16.5ZM45 0.6L45 0.6Q42.65 0.6 40.52-0.25 38.4-1.1 36.8-2.7 35.2-4.3 34.27-6.63 33.35-8.95 33.35-11.95L33.35-11.95Q33.35-14.95 34.27-17.32 35.2-19.7 36.8-21.3 38.4-22.9 40.52-23.75 42.65-24.6 45-24.6L45-24.6Q47.35-24.6 49.47-23.75 51.6-22.9 53.2-21.3 54.8-19.7 55.72-17.32 56.65-14.95 56.65-11.95L56.65-11.95Q56.65-8.95 55.72-6.63 54.8-4.3 53.2-2.7 51.6-1.1 49.47-0.25 47.35 0.6 45 0.6ZM45-1.35L45-1.35Q47-1.35 48.72-2.13 50.45-2.9 51.67-4.3 52.9-5.7 53.6-7.65 54.3-9.6 54.3-11.95L54.3-11.95Q54.3-14.35 53.6-16.3 52.9-18.25 51.67-19.68 50.45-21.1 48.72-21.88 47-22.65 45-22.65L45-22.65Q42.95-22.65 41.25-21.88 39.55-21.1 38.32-19.68 37.1-18.25 36.4-16.3 35.7-14.35 35.7-11.95L35.7-11.95Q35.7-9.6 36.4-7.65 37.1-5.7 38.32-4.3 39.55-2.9 41.25-2.13 42.95-1.35 45-1.35ZM66.45 0L64 0 73.59-12.45 64.8-24 67.3-24 71.95-17.9Q72.65-16.9 73.4-15.88 74.15-14.85 74.95-13.85L74.95-13.85 75.15-13.85Q75.95-14.85 76.77-15.93 77.59-17 78.3-18L78.3-18 82.8-24 85.25-24 76.3-12.35 86 0 83.45 0 78.34-6.5Q77.55-7.5 76.67-8.7 75.8-9.9 74.95-10.95L74.95-10.95 74.75-10.95Q73.9-9.8 73.07-8.72 72.25-7.65 71.4-6.45L71.4-6.45 66.45 0Z" fill="#0080ff" data-fill-palette-color="primary"></path><path d="M101 0.6L101 0.6Q98.65 0.6 96.53-0.25 94.4-1.1 92.8-2.7 91.2-4.3 90.28-6.63 89.35-8.95 89.35-11.95L89.35-11.95Q89.35-14.95 90.28-17.32 91.2-19.7 92.8-21.3 94.4-22.9 96.53-23.75 98.65-24.6 101-24.6L101-24.6Q103.35-24.6 105.48-23.75 107.6-22.9 109.2-21.3 110.8-19.7 111.73-17.32 112.65-14.95 112.65-11.95L112.65-11.95Q112.65-8.95 111.73-6.63 110.8-4.3 109.2-2.7 107.6-1.1 105.48-0.25 103.35 0.6 101 0.6ZM101-1.35L101-1.35Q103-1.35 104.73-2.13 106.45-2.9 107.68-4.3 108.9-5.7 109.6-7.65 110.3-9.6 110.3-11.95L110.3-11.95Q110.3-14.35 109.6-16.3 108.9-18.25 107.68-19.68 106.45-21.1 104.73-21.88 103-22.65 101-22.65L101-22.65Q98.95-22.65 97.25-21.88 95.55-21.1 94.33-19.68 93.1-18.25 92.4-16.3 91.7-14.35 91.7-11.95L91.7-11.95Q91.7-9.6 92.4-7.65 93.1-5.7 94.33-4.3 95.55-2.9 97.25-2.13 98.95-1.35 101-1.35ZM131.1 0L129 0 129-22.1 121.75-22.1 121.75-23.8 129-24 129-26.9Q129-31.45 131.2-34 133.4-36.55 137.95-36.55L137.95-36.55Q139.55-36.55 141.2-36.25 142.85-35.95 144.7-35.1L144.7-35.1 144-33.4Q142.3-34.15 141.05-34.4 139.8-34.65 138.1-34.65L138.1-34.65Q136.2-34.65 134.87-34.1 133.55-33.55 132.7-32.55 131.85-31.55 131.47-30.18 131.1-28.8 131.1-27.1L131.1-27.1 131.1-24 142.25-24 142.25-22.1 131.1-22.1 131.1 0Z" fill="#0023ff" data-fill-palette-color="secondary"></path><path d="M157.15 0L149.5 0 149.5-32.95 157.1-32.95Q160.9-32.95 163.7-31.8 166.5-30.65 168.35-28.5 170.2-26.35 171.1-23.35 172-20.35 172-16.6L172-16.6Q172-12.85 171.1-9.78 170.2-6.7 168.35-4.53 166.5-2.35 163.73-1.18 160.95 0 157.15 0L157.15 0ZM151.8-31L151.8-1.95 156.9-1.95Q160.2-1.95 162.6-3.03 165-4.1 166.55-6.05 168.1-8 168.85-10.68 169.6-13.35 169.6-16.6L169.6-16.6Q169.6-19.8 168.85-22.45 168.1-25.1 166.55-27 165-28.9 162.6-29.95 160.2-31 156.9-31L156.9-31 151.8-31ZM193.8 0L191.6 0 191.6-22.1 179.55-22.1 179.55-24 193.8-24 193.8 0ZM192.15-29.85L192.15-29.85Q191.15-29.85 190.47-30.48 189.8-31.1 189.8-32.25L189.8-32.25Q189.8-33.35 190.47-34 191.15-34.65 192.15-34.65L192.15-34.65Q193.15-34.65 193.82-34 194.5-33.35 194.5-32.25L194.5-32.25Q194.5-31.1 193.82-30.48 193.15-29.85 192.15-29.85ZM222.04 0.6L222.04 0.6Q219.25 0.6 216.87-0.25 214.5-1.1 212.75-2.7 211-4.3 210.02-6.63 209.04-8.95 209.04-11.95L209.04-11.95Q209.04-14.95 210.07-17.32 211.1-19.7 212.9-21.3 214.7-22.9 217.07-23.75 219.45-24.6 222.15-24.6L222.15-24.6Q225.15-24.6 227.22-23.5 229.29-22.4 230.79-20.95L230.79-20.95 229.5-19.45Q227.95-20.9 226.2-21.78 224.45-22.65 222.2-22.65L222.2-22.65Q219.79-22.65 217.79-21.88 215.79-21.1 214.37-19.68 212.95-18.25 212.17-16.3 211.4-14.35 211.4-11.95L211.4-11.95Q211.4-9.6 212.17-7.65 212.95-5.7 214.35-4.3 215.75-2.9 217.75-2.13 219.75-1.35 222.15-1.35L222.15-1.35Q224.6-1.35 226.62-2.33 228.65-3.3 230.25-4.8L230.25-4.8 231.4-3.25Q229.5-1.5 227.2-0.45 224.9 0.6 222.04 0.6ZM251.19 0.6L251.19 0.6Q248.59 0.6 246.29-0.25 243.99-1.1 242.27-2.73 240.54-4.35 239.54-6.7 238.54-9.05 238.54-12L238.54-12Q238.54-14.9 239.54-17.25 240.54-19.6 242.19-21.23 243.84-22.85 246.02-23.73 248.19-24.6 250.54-24.6L250.54-24.6Q252.99-24.6 254.99-23.83 256.99-23.05 258.39-21.63 259.79-20.2 260.54-18.15 261.29-16.1 261.29-13.5L261.29-13.5Q261.29-13.05 261.29-12.58 261.29-12.1 261.19-11.65L261.19-11.65 240.79-11.65Q240.84-9.15 241.72-7.2 242.59-5.25 244.04-3.95 245.49-2.65 247.37-1.98 249.24-1.3 251.34-1.3L251.34-1.3Q253.79-1.3 255.74-2.02 257.69-2.75 259.39-3.9L259.39-3.9 260.29-2.25Q258.69-1.15 256.54-0.28 254.39 0.6 251.19 0.6ZM250.59-22.7L250.59-22.7Q248.84-22.7 247.22-22.1 245.59-21.5 244.27-20.33 242.94-19.15 242.04-17.45 241.14-15.75 240.89-13.55L240.89-13.55 259.29-13.55Q259.04-18.2 256.64-20.45 254.24-22.7 250.59-22.7Z" fill="#f012be" data-fill-palette-color="accent"></path></g></svg></g></svg></g></svg></g></svg></g><g><svg viewBox="0 0 77.83254494442319 77.83254494442318" height="77.83254494442318" width="77.83254494442319"><g><svg></svg></g><g id="icon-0"><svg viewBox="0 0 77.83254494442319 77.83254494442318" height="77.83254494442318" width="77.83254494442319"><g><path xmlns="http://www.w3.org/2000/svg" d="M23.35 77.833c-12.896 0-23.35-10.454-23.35-23.35v-31.133c0-12.896 10.454-23.35 23.35-23.35h31.133c12.896 0 23.35 10.454 23.35 23.35v31.133c0 12.896-10.454 23.35-23.35 23.35z" fill="#f012be" fill-rule="nonzero" stroke="none" stroke-width="1" stroke-linecap="butt" stroke-linejoin="miter" stroke-miterlimit="10" stroke-dasharray="" stroke-dashoffset="0" font-family="none" font-weight="none" font-size="none" text-anchor="none" style="mix-blend-mode: normal" data-fill-palette-color="accent"></path></g><g transform="matrix(1,0,0,1,15.468126402602213,15.566508988884635)"><svg viewBox="0 0 46.896292139218765 46.699526966653906" height="46.699526966653906" width="46.896292139218765"><g><svg xmlns="http://www.w3.org/2000/svg" xmlns:xlink="http://www.w3.org/1999/xlink" version="1.1" x="0" y="0" viewBox="3.9019999504089355 4.074999809265137 91.76000213623047 91.375" enable-background="new 0 0 100 100" xml:space="preserve" height="46.699526966653906" width="46.896292139218765" class="icon-s-0" data-fill-palette-color="quaternary" id="s-0"><polygon points="30.917,82.868 83.112,65.066 41.654,31.079 " fill="#ffffff" data-fill-palette-color="quaternary"></polygon><polygon points="80.891,14.657 82.146,14.141 34.306,4.075 41.663,29.509 " fill="#ffffff" data-fill-palette-color="quaternary"></polygon><polygon points="83.625,14.614 82.001,15.282 82.009,15.303 42.318,30.33 83.625,64.193 " fill="#ffffff" data-fill-palette-color="quaternary"></polygon><polygon points="33.408,4.573 4.484,43.216 40.723,29.86 " fill="#ffffff" data-fill-palette-color="quaternary"></polygon><polygon points="71.796,87.147 93.758,57.799 84.512,65.579 " fill="#ffffff" data-fill-palette-color="quaternary"></polygon><polygon points="23.979,83.508 50.157,91.115 30.145,84.117 " fill="#ffffff" data-fill-palette-color="quaternary"></polygon><polygon points="84.625,17.348 84.625,64.176 95.662,54.889 " fill="#ffffff" data-fill-palette-color="quaternary"></polygon><polygon points="31.782,83.631 65.583,95.45 66.325,94.458 83.009,66.159 " fill="#ffffff" data-fill-palette-color="quaternary"></polygon><polygon points="5.269,48.243 19.277,82.037 29.227,83.021 " fill="#ffffff" data-fill-palette-color="quaternary"></polygon><polygon points="40.66,30.949 3.902,44.497 29.998,82.378 " fill="#ffffff" data-fill-palette-color="quaternary"></polygon></svg></g></svg></g></svg></g></svg></g></svg></g></svg></g><defs></defs></svg><rect width="395.52" height="63.257887944093675" fill="none" stroke="none" visibility="hidden"></rect></g></svg></g></svg>